<?xml version="1.0" encoding="UTF-8"?>
<svg id="Layer_1" data-name="Layer 1" xmlns="http://www.w3.org/2000/svg" xmlns:xlink="http://www.w3.org/1999/xlink" viewBox="0 0 1150 400">
  <defs>
    <style>
      .cls-1 {
        fill: #07b263;
      }

      .cls-2 {
        fill: #00bc44;
      }

      .cls-3 {
        fill: #d60010;
      }

      .cls-4 {
        fill: #ffce00;
      }

      .cls-5 {
        fill-rule: evenodd;
      }

      .cls-6 {
        clip-path: url(#clippath);
      }
    </style>
    <clipPath id="clippath">
      <path d="M198.56,31.05l-2.36.43-2.27-.74-3.22,1.41-6.61-.66-9.45.85-5.29.36-2.37,2.92-3.47-.18-4.2,2.19h-4.2l-.32-1.41-2.05,1.04-3.65-.55-2.92-1.64-2.37-1.28-1.45.87-1.64,3.41-4.38,4.38-3.66,1.66-4.05,1.47-3.01,2.27-.9,2.66-2.2,2.46-.78,3.25.72,1.47-.27,1.39-3.23,3.47-1.71,1.22-2.13.97-1.89,1.71-3.43,1.56-3.63.27-.73.61-.67.6-1.4,2.14-.91,2.01-1.89,1.22-2.99,1.83-.67,1.22-1.58,2.86-.61,1.83-.49,1.34-1.65.79-1.96,1.79-1.75,1.81-1.34,1.95-.18,1.04-.92.85-.35,1.21-.8,1.11-1.66.73-2.5,6.09,1.4-.24.75,1.87,1.08,1.05v1.71l-.2,1.41-1.34,1.83.62,2,.43,2.86-.73,3.47-1.28,3.66-1.22,2.01-.77,3.98-3.39,4.18-1.47.59,1.73,1.43.55,1.46.18,1.04.67.55.55.61-.85.85v.97l-.97,1.1.18,1.52.55,1.13-.67,1.12,1.25,1.41,1.07,1.4,2.5.24,1.04.24-.43,2.13,1.46,1.95.91.79.85.49.24,1.22.59,1.65,1.42.54,1.1,1.22.91.91,1.28,1.89.57,1.98v1.74s.52,1.76.52,1.76l.43,1.34,1.4,1.77,1.04,1.09,1.52.86,1.52.73,1.39,1.23.5.91,2.19,1.1.37.91,1.45.62,1.84,1.51,2.56,2.99,2.8,1.77,2.19,1.4,1.74.54,1.31.92,2.23-.97,1.3-.37,1.16-.3,4.5-1.83,1.16-.37,1.22-.37,1.46.18,1.46.18.79-.49,1.04-.3,1.23.14,1.19-.07.81.35,1.14.48,1.23-.05,1.95.67,1.83.61,1.28.79,1.79-1.46,2.08-.47,1.5-.37,2.81-1.52,2.93-1.28,1.83.18,1.4-.49.59-1.06,5.04-1.11,5.17-.39,4.62-.2,2.29,1.06,1.6,1.86,1.39,1.89.06,1.99,1.41,2.17,1.59,1.27,1.99.13,2.58-.35,2.03-.55,1.89-.03,3.11-.18,1.03.31.84.04,1.23,1.76,1.17,1.06,1.35.29.44,1.11,1.08,1.53.06,2.7-.59,2.23.28,1.63-.97,1.2-.48,1.63-1,.7,1.22.95-.16,1.52-.82.81-.18,2.52-1.1,2.75-2.12.13,1.35,2.05,1,1.58.92,2.4.78,1.76,2.7,2.58,1.7,1.52,1,1,1.64,1.99,1.11,1.29,2.95,2.54.39,1.21.84,1.1.39.66.53,1.47.06,1.76.53.59.29,2.05,1.82,2.34.64,1.29.06,1.93,1.89,2.79.57,2.54-1.06,1.41-.53,1.76.94,1.88,1.76,3.52.89,1.14.42,1.43-.26,1.95-.29,2.7-1.29,2.76-2.34,1.47-2.17,3.34-.12,1.88-.64,4.34-.79,1.15-.38,1.32-.06,1.64-1,.94.16,1.56-.16,1.9.47,6.81.7,1.22.7,1.35,1.76,1.17,2.64,5.16,1.35,1.99.7,2.34,2.4,3.22,1.88,2.87,1.12,1.59.29,1.99-.41,1.76v1.23l.29,1.23.5,3.23,1.14,1.57.23,1.41-.29,1.11.35,1.35.51,1.46-.04,1.06.94,1.5-.06.85.41.86.35,1.62,1.7,2.68,3.11,3.08,1.64,1.84,1.41,2.4.85,3.06,2.02,3.86,1.64,2.11,1.23,2.29.23,2.58-.47,1-1.41.35.23,1.37,1.06,1.5,1.25,1.92-.31,1.25.06.89,2.17.15,1.47.3,1.28,1.31,1.47.7,2.37-1.78,2.2-.27,2.15-.25,1.72-.04.94-1.06,2.11-.53,2.23.47,1.53-.46,4.92.93,1.11-.82,2.73.3.49-1.53,3.16.29,6.99-3.98,1.29-.76,4.34-3.93,2.87-1.99,4.92-6.51.53-.59,2.99-3.46,2.76-1.93,1.31-2.13,1.16-4.38.98-2.66.28-1.97-1.62-1.47,1.11-1.35,2.4-1.76,6.86-2.05,3.46-2.46.09-1.61-.2-1.38,1.09-2.85-.51-3.07.12-1.35.52-2.11-1.62-1.41.04-2.46-1.7-2.23.63-2.23,4.88-3.58,1.67-.87,1.21-.69,2.69-2.6,1.47-2.23,3.99-1.76,2.76-.82,2.22-.64,3.76-2.63,1.17-1.07,1.11-2.11,1.7-1.52.53-1.68.76-1.83-.12-1.7-.53-1.99-.47-1.58.18-1.47.24-1.64.11-1.82-.29-1.58.12-1.93-.12-1.64.28-1.56.42-1.25.12-1.47-.53-1.17s-1.48-1.29-1.5-1.05c-.02.23-1.45-.99-1.45-.99l-.91-3.7-.35-2.05-1.06-2.11.82-2.64-.7-1.35.88-2.05.62-.55-1.5-1.55-.75-1.36-.88-.41.9-5.26.93-2.33,1.34-1.73,1.13-1.73.98-1.85.53-1.88.56-1.12.26-1.7,1.76-1.29,1.29-.24,1.17-1.4,2.11-.88,1.41-2.93,2.49-3.26,3.96-4.13,4.87-4.63,5.33-4.51,4.46-2.87,6.1-6.45,1.88-1.76,1.29-3.22,2.23-3.28,1.17-2.81.18-2.17,3.28-5.69.06-1,1.09-.98,1.37-3.59.88-1.06.47-1.41.06-1.11.3-1.88-.18-1.87,2.17-.23-1.17-1.38-.42-1.96-.06-1.16.35-2.77-2.68-.21-1.37,1.73-3.05.94-2.17.94-1.82-.06-1.15-.16-3.02,1.16-1.64-.06-1.23-.12-1.64,1.17-1.88,1.18-1.4-.42-1.88-.06-1.62.75-1.78,1.06-2.52.18-1.41-.29-3.38-3.6-.31-.98-2.81-1.17,2.34-1.58-.18-1.52-1.64-2.87-1.64-.18-1.88-1.58-.12-1.11-1.76-1.41-1.37-.48-2.68-3.22-2.23-.88-1-1.35-1.93.59-.76-1.58-2.17-1.47-1.2-1.69-.69-3.03-3.1-7.07-1.17-.7-.54-1.03-2.57-1.84-2.93-5.04-.7-4.81.06-1.52-2.17-3.22-2.4-2.05-2.46-1.7-1.23-3.05-.12-2.29.59-1.11-1.7-1.35-2.87-1.99-1.9-4.19-3.02-4.43-2.11-4.57.35-1.64-2.81-2.99,5.57,4.4.94-1.17.06-2.52,1.58-3.52-3.46-8.73-3.46.41-1.81-.09-1.63.55-2.25-.57-2.29-1.47-3.09-.14-2.89.85-1.58,1.47-3.87.94-4.16-.7-2.39-.95-9.72-.78-1.49-2.33-5.13-.72-2.27.06-.6-2.03-3.28-1.61-4.3.18-2.57.72-2.98,3.1-.54,2.33.78,2.09.3,1.97-1.91,1.49-3.28.54-2.86-1.97-5.79-1.91-4.71-1.85-3.94-4.53-5.01-1.67-5.49-.54-3.9-1.33-1.35-1-1.49-1.01-1.43-.18-1.73-2.09,3.1-2.21,2.03-2.68-1.55-2.98.24-2.09,1.43-1.67.44-1.66-2.71,1.01-.93-1.61-1.26-.34-1.81-.61-4.65,1.43-2.92-.31Z"/>
    </clipPath>
  </defs>
  <g>
    <path class="cls-3" d="M495.67,235.74l-7.08-31.12h-32.13l-7.08,31.12h-22.94l30.53-123.81h31.12l30.62,123.81h-23.02ZM484.28,184.29l-6.58-28.68c-.39-1.74-1.28-6.11-2.66-13.11-1.38-7-2.21-11.68-2.49-14.04-.73,4.84-1.66,10.16-2.78,15.98s-4.05,19.1-8.77,39.85h23.28Z"/>
    <path class="cls-3" d="M569.97,159.58h-15.52v76.16h-22.43v-76.16h-10.88v-11.22l10.88-6.75v-7.08c0-10.46,2.16-18.23,6.49-23.32,4.33-5.09,11.3-7.63,20.92-7.63,6.07,0,11.72,1.27,16.95,3.8l-5.9,17.12c-2.81-1.35-5.68-2.02-8.6-2.02-2.59,0-4.47,1.01-5.65,3.04-1.18,2.02-1.77,5.14-1.77,9.36v6.92h15.52v17.8Z"/>
    <path class="cls-3" d="M619.9,140.02c2.76,0,5.45.42,8.1,1.27l-2.61,21.76c-1.57-.56-3.63-.84-6.16-.84-5.45,0-9.64,2.15-12.57,6.45-2.92,4.3-4.39,10.56-4.39,18.77v48.33h-22.43v-93.96h18.47l2.53,14.68h.76c2.47-5.9,5.17-10.12,8.1-12.65,2.92-2.53,6.33-3.8,10.21-3.8Z"/>
    <path class="cls-3" d="M637.27,117.24c0-3.71,1.08-6.65,3.25-8.81s5.19-3.25,9.07-3.25c3.65,0,6.58,1.08,8.77,3.25,2.19,2.16,3.29,5.1,3.29,8.81s-1.12,6.79-3.37,8.9c-2.25,2.11-5.14,3.16-8.69,3.16s-6.69-1.05-8.94-3.16c-2.25-2.11-3.37-5.07-3.37-8.9ZM660.64,235.74h-22.43v-93.96h22.43v93.96Z"/>
    <path class="cls-3" d="M718.49,167.34h37.7v63.26c-10.68,4.55-22.04,6.83-34.07,6.83-14.34,0-25.37-5.45-33.1-16.36-7.73-10.91-11.6-26.62-11.6-47.15s4.43-35.28,13.28-46.47c8.86-11.19,21.24-16.78,37.15-16.78,9.84,0,19.23,2.53,28.17,7.59l-7.25,18.72c-6.97-4.05-13.49-6.07-19.57-6.07-8.72,0-15.62,3.89-20.71,11.68-5.09,7.79-7.63,18.4-7.63,31.84s1.84,24.43,5.52,31.8c3.68,7.37,9.04,11.05,16.07,11.05,3.71,0,7.48-.48,11.3-1.43v-28.25h-15.27v-20.24Z"/>
    <path class="cls-3" d="M808.32,237.43c-11.75,0-21.01-4.17-27.79-12.52-6.78-8.35-10.16-20.17-10.16-35.47s3.06-27.64,9.19-36.35c6.13-8.72,14.68-13.07,25.64-13.07,10.23,0,18.3,3.73,24.21,11.18,5.9,7.45,8.86,17.89,8.86,31.33v11.98h-45.12c.17,8.38,1.88,14.6,5.14,18.68,3.26,4.08,7.76,6.11,13.49,6.11,7.31,0,14.79-2.28,22.43-6.83v18.47c-7.2,4.33-15.83,6.49-25.89,6.49ZM805.03,157.31c-3.2,0-5.85,1.7-7.93,5.1-2.08,3.4-3.29,8.67-3.63,15.81h22.77c-.11-6.86-1.15-12.06-3.12-15.6-1.97-3.54-4.67-5.31-8.1-5.31Z"/>
    <path class="cls-3" d="M899.91,235.74v-56c0-6.8-.82-11.95-2.45-15.43-1.63-3.49-4.27-5.23-7.93-5.23-4.84,0-8.38,2.4-10.63,7.21-2.25,4.81-3.37,12.92-3.37,24.33v45.12h-22.43v-93.96h17.8l2.7,12.06h1.43c2.02-4.33,4.92-7.72,8.69-10.16,3.77-2.45,8.18-3.67,13.24-3.67,8.55,0,14.94,2.92,19.19,8.77,4.25,5.85,6.37,14.39,6.37,25.64v61.32h-22.6Z"/>
    <path class="cls-4" d="M937.19,199.31v-19.74h42.42v19.74h-42.42Z"/>
    <path class="cls-3" d="M1075,172.91c0,20.35-4.15,35.91-12.44,46.68-8.29,10.77-20.23,16.15-35.8,16.15h-30.19v-123.31h32.98c14.34,0,25.5,5.3,33.48,15.9,7.98,10.6,11.98,25.46,11.98,44.57ZM1051.47,173.58c0-27.55-7.59-41.33-22.77-41.33h-9.19v83.41h7.42c8.38,0,14.56-3.5,18.55-10.5,3.99-7,5.99-17.53,5.99-31.59Z"/>
  </g>
  <g>
    <path d="M412.82,303.38l14.67-38.25h4.64l14.73,38.25h-4.96l-3.87-10.24h-16.57l-3.66,10.24h-4.99ZM422.95,289.11h13.6l-6.19-16.78c-.11-.27-.2-.61-.29-1.04s-.19-.93-.29-1.52h-.11c-.09.53-.18,1.01-.28,1.44s-.21.8-.33,1.12l-6.11,16.78Z"/>
    <path d="M464.94,266.51c-.5-.16-.95-.28-1.35-.35-.4-.07-.82-.11-1.27-.11-1.49,0-2.61.4-3.34,1.2-.73.8-1.09,1.97-1.09,3.52v5.28h6.4v3.73h-6.4v23.58h-4.35v-23.58h-4.67v-3.73h4.67v-5.5c0-2.58.79-4.59,2.38-6.04,1.58-1.45,3.75-2.17,6.51-2.17.68,0,1.29.05,1.84.15.55.1,1.12.25,1.71.44l-1.04,3.57Z"/>
    <path d="M482.47,279.8c-.34-.11-.64-.18-.9-.23-.27-.04-.61-.07-1.02-.07-2.22,0-3.97.95-5.25,2.84-1.28,1.89-1.92,4.26-1.92,7.11v13.93h-4.37v-27.32h4.37v5.41h.11c.62-1.92,1.57-3.38,2.86-4.39,1.28-1,2.76-1.51,4.43-1.51.55,0,1.02.03,1.4.08.38.05.72.13,1.03.24l-.72,3.89Z"/>
    <path d="M490.23,269.53c-.89,0-1.64-.3-2.24-.89-.61-.6-.91-1.33-.91-2.2s.3-1.6.91-2.2c.6-.6,1.35-.89,2.24-.89s1.63.3,2.24.89c.6.6.91,1.33.91,2.2s-.3,1.6-.91,2.2c-.61.6-1.35.89-2.24.89ZM492.37,303.38h-4.37v-27.32h4.37v27.32Z"/>
    <path d="M520.43,301.75c-1.26.79-2.53,1.36-3.79,1.72-1.26.36-2.64.55-4.13.55-3.84,0-7-1.19-9.46-3.57-2.46-2.38-3.69-5.76-3.69-10.14s1.24-8.04,3.72-10.78c2.48-2.74,5.89-4.11,10.23-4.11,1.4,0,2.74.17,4.02.51,1.27.34,2.56.89,3.85,1.66l-1.84,3.2c-1.02-.57-2.01-.99-2.99-1.25-.98-.27-2.05-.4-3.2-.4-3.01,0-5.31,1.01-6.91,3.02-1.6,2.01-2.4,4.56-2.4,7.66,0,3.41.84,6.02,2.52,7.82,1.68,1.8,3.85,2.7,6.52,2.7.87,0,1.78-.14,2.74-.41.95-.28,1.91-.71,2.87-1.29l1.95,3.15Z"/>
    <path d="M545.8,303.38h-4.37v-4.27h-.11c-.94,1.64-2.1,2.86-3.48,3.68s-2.98,1.23-4.81,1.23c-2.56,0-4.63-.75-6.21-2.24-1.58-1.49-2.38-3.48-2.38-5.95,0-2.33.8-4.26,2.4-5.79,1.6-1.53,3.87-2.51,6.8-2.93l7.79-1.04v-.61c0-2.29-.53-3.92-1.6-4.9-1.07-.97-2.49-1.45-4.27-1.45-1.43,0-2.79.27-4.11.8-1.31.53-2.55,1.35-3.71,2.45l-2.56-2.64c1.53-1.48,3.16-2.56,4.88-3.26,1.72-.69,3.65-1.04,5.76-1.04,3.31,0,5.8.85,7.47,2.55,1.67,1.7,2.51,4.24,2.51,7.64v17.77ZM541.42,292.28v-2.72l-6.59.91c-2.01.28-3.52.79-4.53,1.52s-1.52,1.88-1.52,3.44.48,2.89,1.43,3.75c.95.86,2.11,1.29,3.48,1.29,2.36,0,4.25-.77,5.64-2.32,1.4-1.55,2.1-3.5,2.1-5.87Z"/>
    <path d="M576.93,303.38h-4.37v-15.58c0-2.9-.53-5.07-1.59-6.52-1.06-1.45-2.64-2.17-4.76-2.17s-4,.82-5.43,2.47c-1.43,1.65-2.15,3.72-2.15,6.23v15.58h-4.37v-27.32h4.37v4.53h.11c1.03-1.72,2.29-3.02,3.79-3.88,1.49-.86,3.22-1.29,5.18-1.29,2.99,0,5.27.96,6.85,2.89,1.58,1.93,2.38,4.72,2.38,8.36v16.7Z"/>
    <path d="M629.32,300.77c-1.92,1.08-3.95,1.9-6.08,2.44-2.13.54-4.37.81-6.72.81-5.6,0-10.05-1.69-13.35-5.07-3.3-3.38-4.95-8.11-4.95-14.19s1.84-11.14,5.54-14.79c3.69-3.66,8.43-5.48,14.2-5.48,2.12,0,4.08.22,5.89.65,1.81.44,3.66,1.14,5.55,2.1l-1.84,3.63c-1.58-.82-3.14-1.41-4.67-1.78-1.53-.36-3.18-.55-4.96-.55-4.37,0-7.97,1.39-10.79,4.16-2.82,2.77-4.23,6.69-4.23,11.74s1.24,8.99,3.71,11.62c2.47,2.62,5.96,3.94,10.46,3.94,1.49,0,2.89-.15,4.19-.44,1.3-.29,2.49-.74,3.57-1.35v-10.72h-8.38v-4.05h12.86v17.34Z"/>
    <path d="M659.57,290.71h-19.31c.07,3.08.88,5.45,2.44,7.11,1.56,1.66,3.74,2.49,6.55,2.49,1.23,0,2.46-.18,3.7-.55,1.24-.36,2.46-.95,3.67-1.75l2.03,3.12c-1.55,1-3.09,1.73-4.64,2.19-1.55.46-3.25.69-5.1.69-4.13,0-7.35-1.23-9.66-3.68s-3.48-5.88-3.49-10.27c-.02-4.39,1.14-7.93,3.48-10.62,2.34-2.68,5.38-4.03,9.11-4.03s6.32,1.16,8.28,3.48c1.97,2.32,2.95,5.54,2.95,9.64v2.16ZM655.09,287.13c-.02-2.52-.63-4.49-1.84-5.91-1.21-1.41-2.87-2.12-4.99-2.12s-3.85.73-5.3,2.17c-1.45,1.45-2.33,3.4-2.65,5.85h14.78Z"/>
    <path d="M688.86,303.38h-4.37v-15.58c0-2.9-.53-5.07-1.59-6.52-1.06-1.45-2.64-2.17-4.76-2.17s-4,.82-5.43,2.47c-1.43,1.65-2.15,3.72-2.15,6.23v15.58h-4.37v-27.32h4.37v4.53h.11c1.03-1.72,2.29-3.02,3.79-3.88,1.49-.86,3.22-1.29,5.18-1.29,2.99,0,5.27.96,6.85,2.89,1.58,1.93,2.38,4.72,2.38,8.36v16.7Z"/>
    <path d="M708.52,304.02c-4.04,0-7.26-1.28-9.67-3.83-2.41-2.55-3.62-5.93-3.62-10.15,0-4.57,1.25-8.15,3.73-10.72,2.49-2.58,5.89-3.88,10.19-3.89,4.07-.02,7.25,1.24,9.54,3.76,2.29,2.52,3.43,6,3.43,10.43s-1.23,7.87-3.69,10.48c-2.46,2.61-5.77,3.92-9.91,3.92ZM708.84,300.34c2.83,0,5-.92,6.52-2.76,1.52-1.84,2.28-4.44,2.28-7.8s-.76-6.07-2.29-7.91c-1.53-1.84-3.7-2.76-6.51-2.76s-5.03.96-6.67,2.88c-1.63,1.92-2.45,4.55-2.45,7.9s.83,5.79,2.48,7.66c1.65,1.87,3.87,2.8,6.64,2.8Z"/>
    <path d="M767.9,303.38h-4.37v-15.69c0-3.02-.47-5.21-1.4-6.56-.93-1.35-2.5-2.03-4.71-2.03-1.87,0-3.45.85-4.76,2.56-1.31,1.71-1.96,3.75-1.96,6.14v15.58h-4.37v-16.22c0-2.68-.52-4.7-1.55-6.04-1.03-1.34-2.59-2.01-4.67-2.01-1.92,0-3.5.8-4.75,2.41-1.24,1.61-1.87,3.7-1.87,6.28v15.58h-4.37v-27.32h4.37v4.32h.11c.98-1.65,2.17-2.89,3.59-3.72,1.42-.83,3.05-1.24,4.9-1.24s3.5.52,4.88,1.56c1.39,1.04,2.34,2.41,2.86,4.1,1.01-1.88,2.27-3.3,3.79-4.24,1.51-.94,3.27-1.41,5.28-1.41,3,0,5.26.92,6.76,2.77,1.5,1.85,2.25,4.63,2.25,8.35v16.83Z"/>
    <path d="M778.42,269.53c-.89,0-1.64-.3-2.24-.89-.61-.6-.91-1.33-.91-2.2s.3-1.6.91-2.2c.6-.6,1.35-.89,2.24-.89s1.63.3,2.24.89c.6.6.9,1.33.9,2.2s-.3,1.6-.9,2.2c-.61.6-1.35.89-2.24.89ZM780.55,303.38h-4.37v-27.32h4.37v27.32Z"/>
    <path d="M808.61,301.75c-1.26.79-2.53,1.36-3.79,1.72s-2.64.55-4.13.55c-3.84,0-6.99-1.19-9.46-3.57-2.46-2.38-3.7-5.76-3.7-10.14s1.24-8.04,3.72-10.78c2.48-2.74,5.89-4.11,10.23-4.11,1.4,0,2.74.17,4.02.51,1.27.34,2.55.89,3.85,1.66l-1.84,3.2c-1.01-.57-2.01-.99-2.99-1.25-.98-.27-2.05-.4-3.2-.4-3.01,0-5.31,1.01-6.91,3.02-1.6,2.01-2.4,4.56-2.4,7.66,0,3.41.84,6.02,2.52,7.82,1.68,1.8,3.85,2.7,6.52,2.7.87,0,1.78-.14,2.74-.41.95-.28,1.91-.71,2.87-1.29l1.95,3.15Z"/>
    <path d="M812.08,301.33l2.08-3.36c1.19.78,2.36,1.37,3.49,1.77,1.14.4,2.36.6,3.68.6,1.87,0,3.29-.35,4.26-1.04.97-.69,1.45-1.73,1.45-3.12,0-1.12-.43-2.07-1.3-2.84-.86-.77-2.21-1.39-4.04-1.85-3.41-.87-5.75-1.97-7.01-3.3-1.26-1.32-1.9-2.96-1.9-4.9,0-2.24.85-4.11,2.54-5.61,1.69-1.5,4.04-2.25,7.07-2.25,1.46,0,2.84.19,4.16.56,1.31.37,2.66,1.01,4.03,1.92l-1.95,3.31c-1.24-.78-2.36-1.33-3.35-1.64-.99-.31-1.99-.47-3-.47-1.76,0-3.1.32-4.03.97-.92.65-1.39,1.59-1.39,2.81s.48,2.15,1.43,2.77c.95.62,2.48,1.21,4.6,1.76,2.77.75,4.85,1.79,6.23,3.13,1.38,1.34,2.07,3.1,2.07,5.27,0,2.52-.89,4.52-2.68,5.99-1.78,1.47-4.24,2.2-7.35,2.2-1.67,0-3.28-.23-4.82-.69-1.54-.46-2.96-1.13-4.28-2Z"/>
    <path d="M853.37,303.38v-38.25h10.56c6.74,0,11.8,1.55,15.16,4.65,3.37,3.11,5.06,7.77,5.06,13.99,0,5.9-1.87,10.65-5.62,14.23-3.74,3.59-8.75,5.38-15.03,5.38h-10.14ZM857.86,269.18v30.14h5.71c5.02,0,8.92-1.34,11.71-4.03,2.79-2.68,4.19-6.49,4.19-11.42s-1.3-8.59-3.91-11.03c-2.6-2.45-6.51-3.67-11.72-3.67h-5.98Z"/>
    <path d="M910.44,303.38h-4.37v-4.27h-.11c-.94,1.64-2.1,2.86-3.48,3.68-1.38.82-2.98,1.23-4.81,1.23-2.56,0-4.63-.75-6.21-2.24s-2.37-3.48-2.37-5.95c0-2.33.8-4.26,2.4-5.79,1.6-1.53,3.87-2.51,6.8-2.93l7.79-1.04v-.61c0-2.29-.53-3.92-1.6-4.9-1.07-.97-2.49-1.45-4.27-1.45-1.42,0-2.79.27-4.11.8-1.32.53-2.55,1.35-3.71,2.45l-2.56-2.64c1.53-1.48,3.15-2.56,4.88-3.26,1.72-.69,3.65-1.04,5.76-1.04,3.31,0,5.8.85,7.47,2.55,1.67,1.7,2.51,4.24,2.51,7.64v17.77ZM906.06,292.28v-2.72l-6.59.91c-2.01.28-3.52.79-4.53,1.52-1.02.73-1.52,1.88-1.52,3.44s.48,2.89,1.43,3.75c.95.86,2.11,1.29,3.48,1.29,2.36,0,4.24-.77,5.64-2.32,1.4-1.55,2.1-3.5,2.1-5.87Z"/>
    <path d="M931.91,303.06c-.75.3-1.48.53-2.2.68-.72.15-1.54.23-2.44.23-2.17,0-3.87-.64-5.11-1.91-1.24-1.27-1.85-3.15-1.85-5.64v-16.62h-4.7v-3.73h4.7v-6.67l4.37-1.41v8.08h6.88v3.73h-6.88v16.11c0,1.56.28,2.7.84,3.39.56.7,1.4,1.04,2.52,1.04.53,0,1.05-.06,1.55-.19.5-.12.92-.26,1.25-.43l1.07,3.34Z"/>
    <path d="M956.75,303.38h-4.37v-4.27h-.11c-.94,1.64-2.1,2.86-3.48,3.68-1.38.82-2.98,1.23-4.81,1.23-2.56,0-4.63-.75-6.21-2.24-1.58-1.49-2.37-3.48-2.37-5.95,0-2.33.8-4.26,2.4-5.79,1.6-1.53,3.87-2.51,6.8-2.93l7.79-1.04v-.61c0-2.29-.53-3.92-1.6-4.9-1.07-.97-2.49-1.45-4.27-1.45-1.42,0-2.79.27-4.11.8-1.32.53-2.55,1.35-3.71,2.45l-2.56-2.64c1.53-1.48,3.15-2.56,4.88-3.26,1.72-.69,3.65-1.04,5.76-1.04,3.31,0,5.8.85,7.47,2.55,1.67,1.7,2.51,4.24,2.51,7.64v17.77ZM952.37,292.28v-2.72l-6.59.91c-2.01.28-3.52.79-4.53,1.52-1.02.73-1.52,1.88-1.52,3.44s.48,2.89,1.43,3.75c.95.86,2.11,1.29,3.48,1.29,2.36,0,4.24-.77,5.64-2.32,1.4-1.55,2.1-3.5,2.1-5.87Z"/>
    <path d="M1009.51,303.38h-4.48v-17.45h-19.79v17.45h-4.48v-38.25h4.48v16.78h19.79v-16.78h4.48v38.25Z"/>
    <path d="M1041.04,303.38h-4.37v-4.32h-.11c-.91,1.65-2.06,2.89-3.47,3.72-1.41.83-3.06,1.24-4.96,1.24-3.25,0-5.7-.97-7.32-2.91-1.63-1.94-2.44-4.84-2.44-8.72v-16.33h4.35v15.63c0,2.88.55,5.04,1.66,6.48,1.1,1.44,2.76,2.16,4.96,2.16s3.89-.79,5.27-2.36c1.38-1.57,2.07-3.63,2.07-6.18v-15.74h4.37v27.32Z"/>
    <path d="M1054.35,299.86h-.11v3.52h-4.37v-40.44h4.37v17.93h.11c1.08-1.81,2.41-3.17,3.99-4.08,1.57-.9,3.39-1.36,5.45-1.36,3.5,0,6.25,1.22,8.23,3.67,1.98,2.45,2.97,5.72,2.97,9.83,0,4.57-1.11,8.23-3.33,10.98-2.22,2.75-5.26,4.12-9.12,4.12-1.8,0-3.38-.35-4.75-1.04-1.37-.7-2.52-1.74-3.44-3.12ZM1054.25,288.41v3.82c0,2.26.73,4.17,2.2,5.75,1.47,1.57,3.33,2.36,5.59,2.36,2.65,0,4.72-1.01,6.23-3.04,1.5-2.03,2.25-4.85,2.25-8.46,0-3.04-.7-5.42-2.11-7.15-1.41-1.72-3.31-2.59-5.71-2.59-2.54,0-4.59.88-6.14,2.65-1.55,1.77-2.32,3.99-2.32,6.65Z"/>
  </g>
  <g>
    <g>
      <path d="M198.56,31.05l-2.36.43-2.27-.74-3.22,1.41-6.61-.66-9.45.85-5.29.36-2.37,2.92-3.47-.18-4.2,2.19h-4.2l-.32-1.41-2.05,1.04-3.65-.55-2.92-1.64-2.37-1.28-1.45.87-1.64,3.41-4.38,4.38-3.66,1.66-4.05,1.47-3.01,2.27-.9,2.66-2.2,2.46-.78,3.25.72,1.47-.27,1.39-3.23,3.47-1.71,1.22-2.13.97-1.89,1.71-3.43,1.56-3.63.27-.73.61-.67.6-1.4,2.14-.91,2.01-1.89,1.22-2.99,1.83-.67,1.22-1.58,2.86-.61,1.83-.49,1.34-1.65.79-1.96,1.79-1.75,1.81-1.34,1.95-.18,1.04-.92.85-.35,1.21-.8,1.11-1.66.73-2.5,6.09,1.4-.24.75,1.87,1.08,1.05v1.71l-.2,1.41-1.34,1.83.62,2,.43,2.86-.73,3.47-1.28,3.66-1.22,2.01-.77,3.98-3.39,4.18-1.47.59,1.73,1.43.55,1.46.18,1.04.67.55.55.61-.85.85v.97l-.97,1.1.18,1.52.55,1.13-.67,1.12,1.25,1.41,1.07,1.4,2.5.24,1.04.24-.43,2.13,1.46,1.95.91.79.85.49.24,1.22.59,1.65,1.42.54,1.1,1.22.91.91,1.28,1.89.57,1.98v1.74s.52,1.76.52,1.76l.43,1.34,1.4,1.77,1.04,1.09,1.52.86,1.52.73,1.39,1.23.5.91,2.19,1.1.37.91,1.45.62,1.84,1.51,2.56,2.99,2.8,1.77,2.19,1.4,1.74.54,1.31.92,2.23-.97,1.3-.37,1.16-.3,4.5-1.83,1.16-.37,1.22-.37,1.46.18,1.46.18.79-.49,1.04-.3,1.23.14,1.19-.07.81.35,1.14.48,1.23-.05,1.95.67,1.83.61,1.28.79,1.79-1.46,2.08-.47,1.5-.37,2.81-1.52,2.93-1.28,1.83.18,1.4-.49.59-1.06,5.04-1.11,5.17-.39,4.62-.2,2.29,1.06,1.6,1.86,1.39,1.89.06,1.99,1.41,2.17,1.59,1.27,1.99.13,2.58-.35,2.03-.55,1.89-.03,3.11-.18,1.03.31.84.04,1.23,1.76,1.17,1.06,1.35.29.44,1.11,1.08,1.53.06,2.7-.59,2.23.28,1.63-.97,1.2-.48,1.63-1,.7,1.22.95-.16,1.52-.82.81-.18,2.52-1.1,2.75-2.12.13,1.35,2.05,1,1.58.92,2.4.78,1.76,2.7,2.58,1.7,1.52,1,1,1.64,1.99,1.11,1.29,2.95,2.54.39,1.21.84,1.1.39.66.53,1.47.06,1.76.53.59.29,2.05,1.82,2.34.64,1.29.06,1.93,1.89,2.79.57,2.54-1.06,1.41-.53,1.76.94,1.88,1.76,3.52.89,1.14.42,1.43-.26,1.95-.29,2.7-1.29,2.76-2.34,1.47-2.17,3.34-.12,1.88-.64,4.34-.79,1.15-.38,1.32-.06,1.64-1,.94.16,1.56-.16,1.9.47,6.81.7,1.22.7,1.35,1.76,1.17,2.64,5.16,1.35,1.99.7,2.34,2.4,3.22,1.88,2.87,1.12,1.59.29,1.99-.41,1.76v1.23l.29,1.23.5,3.23,1.14,1.57.23,1.41-.29,1.11.35,1.35.51,1.46-.04,1.06.94,1.5-.06.85.41.86.35,1.62,1.7,2.68,3.11,3.08,1.64,1.84,1.41,2.4.85,3.06,2.02,3.86,1.64,2.11,1.23,2.29.23,2.58-.47,1-1.41.35.23,1.37,1.06,1.5,1.25,1.92-.31,1.25.06.89,2.17.15,1.47.3,1.28,1.31,1.47.7,2.37-1.78,2.2-.27,2.15-.25,1.72-.04.94-1.06,2.11-.53,2.23.47,1.53-.46,4.92.93,1.11-.82,2.73.3.49-1.53,3.16.29,6.99-3.98,1.29-.76,4.34-3.93,2.87-1.99,4.92-6.51.53-.59,2.99-3.46,2.76-1.93,1.31-2.13,1.16-4.38.98-2.66.28-1.97-1.62-1.47,1.11-1.35,2.4-1.76,6.86-2.05,3.46-2.46.09-1.61-.2-1.38,1.09-2.85-.51-3.07.12-1.35.52-2.11-1.62-1.41.04-2.46-1.7-2.23.63-2.23,4.88-3.58,1.67-.87,1.21-.69,2.69-2.6,1.47-2.23,3.99-1.76,2.76-.82,2.22-.64,3.76-2.63,1.17-1.07,1.11-2.11,1.7-1.52.53-1.68.76-1.83-.12-1.7-.53-1.99-.47-1.58.18-1.47.24-1.64.11-1.82-.29-1.58.12-1.93-.12-1.64.28-1.56.42-1.25.12-1.47-.53-1.17s-1.48-1.29-1.5-1.05c-.02.23-1.45-.99-1.45-.99l-.91-3.7-.35-2.05-1.06-2.11.82-2.64-.7-1.35.88-2.05.62-.55-1.5-1.55-.75-1.36-.88-.41.9-5.26.93-2.33,1.34-1.73,1.13-1.73.98-1.85.53-1.88.56-1.12.26-1.7,1.76-1.29,1.29-.24,1.17-1.4,2.11-.88,1.41-2.93,2.49-3.26,3.96-4.13,4.87-4.63,5.33-4.51,4.46-2.87,6.1-6.45,1.88-1.76,1.29-3.22,2.23-3.28,1.17-2.81.18-2.17,3.28-5.69.06-1,1.09-.98,1.37-3.59.88-1.06.47-1.41.06-1.11.3-1.88-.18-1.87,2.17-.23-1.17-1.38-.42-1.96-.06-1.16.35-2.77-2.68-.21-1.37,1.73-3.05.94-2.17.94-1.82-.06-1.15-.16-3.02,1.16-1.64-.06-1.23-.12-1.64,1.17-1.88,1.18-1.4-.42-1.88-.06-1.62.75-1.78,1.06-2.52.18-1.41-.29-3.38-3.6-.31-.98-2.81-1.17,2.34-1.58-.18-1.52-1.64-2.87-1.64-.18-1.88-1.58-.12-1.11-1.76-1.41-1.37-.48-2.68-3.22-2.23-.88-1-1.35-1.93.59-.76-1.58-2.17-1.47-1.2-1.69-.69-3.03-3.1-7.07-1.17-.7-.54-1.03-2.57-1.84-2.93-5.04-.7-4.81.06-1.52-2.17-3.22-2.4-2.05-2.46-1.7-1.23-3.05-.12-2.29.59-1.11-1.7-1.35-2.87-1.99-1.9-4.19-3.02-4.43-2.11-4.57.35-1.64-2.81-2.99,5.57,4.4.94-1.17.06-2.52,1.58-3.52-3.46-8.73-3.46.41-1.81-.09-1.63.55-2.25-.57-2.29-1.47-3.09-.14-2.89.85-1.58,1.47-3.87.94-4.16-.7-2.39-.95-9.72-.78-1.49-2.33-5.13-.72-2.27.06-.6-2.03-3.28-1.61-4.3.18-2.57.72-2.98,3.1-.54,2.33.78,2.09.3,1.97-1.91,1.49-3.28.54-2.86-1.97-5.79-1.91-4.71-1.85-3.94-4.53-5.01-1.67-5.49-.54-3.9-1.33-1.35-1-1.49-1.01-1.43-.18-1.73-2.09,3.1-2.21,2.03-2.68-1.55-2.98.24-2.09,1.43-1.67.44-1.66-2.71,1.01-.93-1.61-1.26-.34-1.81-.61-4.65,1.43-2.92-.31Z"/>
      <g class="cls-6">
        <g>
          <path class="cls-2" d="M244.3,429.47c3.71,5.03,8.26,9.38,12.98,13.49,1.58-1.34,3.15-2.65,4.7-3.94.59-.49,1.18-.98,1.77-1.47-2.69-2.31-5.26-4.63-7.58-7.01-3.49-3.57-6.4-7.26-8.41-11.21-1.01-1.98-1.8-4.03-2.34-6.19-.54-2.16-.84-4.45-.84-6.91,0-3.81.71-7.19,1.95-10.37,1.09-2.78,2.61-5.4,4.47-7.93,3.26-4.44,7.62-8.6,12.4-12.72,3.58-3.09,7.39-6.16,11.12-9.37,2.8-2.4,5.55-4.88,8.12-7.52,3.86-3.96,7.34-8.28,9.87-13.25,1.27-2.48,2.29-5.13,3-7.95.71-2.81,1.09-5.8,1.09-8.93,0-2.3-1.86-4.16-4.16-4.16s-4.16,1.87-4.16,4.16c0,3.82-.71,7.19-1.95,10.37-1.09,2.78-2.61,5.4-4.48,7.93-3.26,4.44-7.62,8.6-12.4,12.72-3.58,3.09-7.39,6.16-11.12,9.37-2.8,2.4-5.55,4.88-8.12,7.52-3.86,3.96-7.34,8.28-9.87,13.25-1.27,2.48-2.29,5.13-3,7.95-.71,2.81-1.09,5.8-1.09,8.93,0,4.86.92,9.34,2.52,13.41,1.4,3.57,3.31,6.82,5.52,9.83Z"/>
          <path class="cls-3" d="M244.3,351.44c3.71,5.02,8.26,9.38,12.98,13.49,2.18-1.85,4.35-3.64,6.46-5.41-2.69-2.31-5.26-4.63-7.58-7.01-3.49-3.57-6.4-7.26-8.41-11.21-1.01-1.98-1.8-4.03-2.34-6.19-.54-2.16-.84-4.44-.84-6.91,0-2.3-1.86-4.16-4.16-4.16s-4.16,1.87-4.16,4.16c0,4.86.92,9.34,2.52,13.41,1.4,3.57,3.31,6.82,5.52,9.83Z"/>
          <path class="cls-4" d="M280.09,341.75c0-.96-.78-1.73-1.73-1.73h-23.87c-.96,0-1.73.78-1.73,1.73s.78,1.73,1.73,1.73h23.87c.96,0,1.73-.78,1.73-1.73Z"/>
          <path class="cls-4" d="M251.31,334.45h30.24c.96,0,1.73-.78,1.73-1.73s-.78-1.73-1.73-1.73h-30.24c-.96,0-1.73.78-1.73,1.73s.78,1.73,1.73,1.73Z"/>
          <path class="cls-4" d="M261.24,349.05c-.96,0-1.73.78-1.73,1.73s.78,1.73,1.73,1.73h10.31c.96,0,1.73-.78,1.73-1.73s-.78-1.73-1.73-1.73h-10.31Z"/>
          <path class="cls-1" d="M288.56,383c-3.71-5.02-8.26-9.38-12.98-13.49-2.18,1.85-4.35,3.64-6.46,5.41,2.69,2.31,5.26,4.63,7.57,7.01,3.49,3.57,6.4,7.26,8.41,11.21,1.01,1.98,1.8,4.03,2.34,6.19.54,2.16.84,4.44.84,6.91,0,3.82-.71,7.19-1.95,10.37-1.09,2.78-2.61,5.4-4.48,7.93-3.26,4.44-7.62,8.6-12.4,12.72-3.58,3.09-7.39,6.16-11.12,9.37-2.8,2.4-5.55,4.88-8.12,7.52-3.86,3.96-7.34,8.28-9.87,13.25-1.27,2.48-2.29,5.13-3,7.95-.71,2.81-1.09,5.8-1.09,8.93,0,2.3,1.86,4.16,4.16,4.16s4.16-1.86,4.16-4.16c0-3.82.71-7.19,1.95-10.37,1.09-2.78,2.61-5.4,4.47-7.93,3.26-4.44,7.62-8.6,12.4-12.72,3.58-3.09,7.39-6.16,11.12-9.37,2.8-2.4,5.55-4.88,8.12-7.52,3.86-3.96,7.34-8.28,9.87-13.25,1.27-2.48,2.29-5.13,3-7.95.71-2.81,1.09-5.8,1.09-8.93,0-4.86-.92-9.34-2.52-13.41-1.4-3.57-3.31-6.82-5.52-9.83Z"/>
          <path class="cls-1" d="M278.31,390.95h-23.79c-.96,0-1.73.78-1.73,1.73s.78,1.73,1.73,1.73h23.79c.96,0,1.73-.78,1.73-1.73s-.78-1.73-1.73-1.73Z"/>
          <path class="cls-1" d="M281.53,399.98h-30.21c-.96,0-1.73.78-1.73,1.73s.78,1.73,1.73,1.73h30.21c.96,0,1.73-.78,1.73-1.73s-.78-1.73-1.73-1.73Z"/>
          <path class="cls-1" d="M271.51,381.91h-10.22c-.96,0-1.73.78-1.73,1.73s.78,1.73,1.73,1.73h10.22c.96,0,1.73-.78,1.73-1.73s-.78-1.73-1.73-1.73Z"/>
        </g>
        <g>
          <path class="cls-4" d="M261.24,269.33c-.96,0-1.73.78-1.73,1.73s.78,1.73,1.73,1.73h10.31c.96,0,1.73-.78,1.73-1.73s-.78-1.73-1.73-1.73h-10.31Z"/>
          <path class="cls-2" d="M244.3,271.71c3.71,5.03,8.26,9.38,12.98,13.49,1.58-1.34,3.15-2.65,4.7-3.94.59-.49,1.18-.98,1.77-1.47-2.69-2.31-5.26-4.63-7.58-7.01-3.49-3.57-6.4-7.26-8.41-11.21-1.01-1.98-1.8-4.03-2.34-6.19-.54-2.16-.84-4.45-.84-6.91,0-3.81.71-7.19,1.95-10.37,1.09-2.78,2.61-5.4,4.47-7.93,3.26-4.44,7.62-8.6,12.4-12.72,3.58-3.09,7.39-6.16,11.12-9.37,2.8-2.4,5.55-4.88,8.12-7.52,3.86-3.96,7.34-8.28,9.87-13.25,1.27-2.48,2.29-5.13,3-7.95.71-2.81,1.09-5.8,1.09-8.93,0-2.3-1.86-4.16-4.16-4.16s-4.16,1.87-4.16,4.16c0,3.82-.71,7.19-1.95,10.37-1.09,2.78-2.61,5.4-4.48,7.93-3.26,4.44-7.62,8.6-12.4,12.72-3.58,3.09-7.39,6.16-11.12,9.37-2.8,2.4-5.55,4.88-8.12,7.52-3.86,3.96-7.34,8.28-9.87,13.25-1.27,2.48-2.29,5.13-3,7.95-.71,2.81-1.09,5.8-1.09,8.93,0,4.86.92,9.34,2.52,13.41,1.4,3.57,3.31,6.82,5.52,9.83Z"/>
          <path class="cls-4" d="M280.09,262.03c0-.96-.78-1.73-1.73-1.73h-23.87c-.96,0-1.73.78-1.73,1.73s.78,1.73,1.73,1.73h23.87c.96,0,1.73-.78,1.73-1.73Z"/>
          <path class="cls-4" d="M283.28,252.99c0-.96-.78-1.73-1.73-1.73h-30.24c-.96,0-1.73.78-1.73,1.73s.78,1.73,1.73,1.73h30.24c.96,0,1.73-.78,1.73-1.73Z"/>
          <path class="cls-4" d="M280.09,183.99c0-.96-.78-1.73-1.73-1.73h-23.87c-.96,0-1.73.78-1.73,1.73s.78,1.73,1.73,1.73h23.87c.96,0,1.73-.78,1.73-1.73Z"/>
          <path class="cls-3" d="M244.3,193.68c3.71,5.02,8.26,9.38,12.98,13.49,2.18-1.85,4.35-3.64,6.46-5.41-2.69-2.31-5.26-4.63-7.58-7.01-3.49-3.57-6.4-7.26-8.41-11.21-1.01-1.98-1.8-4.03-2.34-6.19-.54-2.16-.84-4.44-.84-6.91,0-2.3-1.86-4.16-4.16-4.16s-4.16,1.87-4.16,4.16c0,4.86.92,9.34,2.52,13.41,1.4,3.57,3.31,6.82,5.52,9.83Z"/>
          <path class="cls-4" d="M251.31,176.69h30.24c.96,0,1.73-.78,1.73-1.73s-.78-1.73-1.73-1.73h-30.24c-.96,0-1.73.78-1.73,1.73s.78,1.73,1.73,1.73Z"/>
          <path class="cls-4" d="M261.24,191.29c-.96,0-1.73.78-1.73,1.73s.78,1.73,1.73,1.73h10.31c.96,0,1.73-.78,1.73-1.73s-.78-1.73-1.73-1.73h-10.31Z"/>
          <path class="cls-4" d="M281.53,320.26h-30.21c-.96,0-1.73.78-1.73,1.73s.78,1.73,1.73,1.73h30.21c.96,0,1.73-.78,1.73-1.73s-.78-1.73-1.73-1.73Z"/>
          <path class="cls-2" d="M288.56,303.27c-3.71-5.02-8.26-9.38-12.98-13.49-2.18,1.85-4.35,3.64-6.46,5.41,2.69,2.31,5.26,4.63,7.58,7.01,3.49,3.57,6.4,7.26,8.41,11.22,1.01,1.98,1.8,4.03,2.34,6.19.54,2.16.84,4.44.84,6.91,0,2.3,1.86,4.16,4.16,4.16s4.16-1.86,4.16-4.16c0-4.86-.92-9.34-2.52-13.41-1.4-3.57-3.31-6.82-5.52-9.83Z"/>
          <path class="cls-4" d="M271.51,305.66c.96,0,1.73-.78,1.73-1.73s-.78-1.73-1.73-1.73h-10.22c-.96,0-1.73.78-1.73,1.73s.78,1.73,1.73,1.73h10.22Z"/>
          <path class="cls-3" d="M288.56,225.24c-3.71-5.02-8.26-9.38-12.98-13.49-2.18,1.85-4.35,3.64-6.46,5.41,2.69,2.31,5.26,4.63,7.57,7.01,3.49,3.57,6.4,7.26,8.41,11.21,1.01,1.98,1.8,4.03,2.34,6.19.54,2.16.84,4.44.84,6.91,0,3.82-.71,7.19-1.95,10.37-1.09,2.78-2.61,5.4-4.48,7.93-3.26,4.44-7.62,8.6-12.4,12.72-3.58,3.09-7.39,6.16-11.12,9.37-2.8,2.4-5.55,4.88-8.12,7.52-3.86,3.96-7.34,8.28-9.87,13.25-1.27,2.48-2.29,5.13-3,7.95-.71,2.81-1.09,5.8-1.09,8.93,0,2.3,1.86,4.16,4.16,4.16s4.16-1.86,4.16-4.16c0-3.82.71-7.19,1.95-10.37,1.09-2.78,2.61-5.4,4.47-7.93,3.26-4.44,7.62-8.6,12.4-12.72,3.58-3.09,7.39-6.16,11.12-9.37,2.8-2.4,5.55-4.88,8.12-7.52,3.86-3.96,7.34-8.28,9.87-13.25,1.27-2.48,2.29-5.13,3-7.95.71-2.81,1.09-5.8,1.09-8.93,0-4.86-.92-9.34-2.52-13.41-1.4-3.57-3.31-6.82-5.52-9.83Z"/>
          <path class="cls-4" d="M281.53,242.22h-30.21c-.96,0-1.73.78-1.73,1.73s.78,1.73,1.73,1.73h30.21c.96,0,1.73-.78,1.73-1.73s-.78-1.73-1.73-1.73Z"/>
          <path class="cls-4" d="M252.78,312.96c0,.96.78,1.73,1.73,1.73h23.79c.96,0,1.73-.78,1.73-1.73s-.78-1.73-1.73-1.73h-23.79c-.96,0-1.73.78-1.73,1.73Z"/>
          <path class="cls-4" d="M278.31,233.19h-23.79c-.96,0-1.73.78-1.73,1.73s.78,1.73,1.73,1.73h23.79c.96,0,1.73-.78,1.73-1.73s-.78-1.73-1.73-1.73Z"/>
          <path class="cls-4" d="M271.51,224.15h-10.22c-.96,0-1.73.78-1.73,1.73s.78,1.73,1.73,1.73h10.22c.96,0,1.73-.78,1.73-1.73s-.78-1.73-1.73-1.73Z"/>
        </g>
        <g>
          <path class="cls-4" d="M283.28,94.6c0-.96-.78-1.73-1.73-1.73h-30.24c-.96,0-1.73.78-1.73,1.73s.78,1.73,1.73,1.73h30.24c.96,0,1.73-.78,1.73-1.73Z"/>
          <path class="cls-2" d="M244.3,113.32c3.71,5.03,8.26,9.38,12.98,13.49,1.58-1.34,3.15-2.65,4.7-3.94.59-.49,1.18-.98,1.77-1.47-2.69-2.31-5.26-4.63-7.58-7.01-3.49-3.57-6.4-7.26-8.41-11.21-1.01-1.98-1.8-4.03-2.34-6.19-.54-2.16-.84-4.45-.84-6.91,0-3.81.71-7.19,1.95-10.37,1.09-2.78,2.61-5.4,4.47-7.93,3.26-4.44,7.62-8.6,12.4-12.72,3.58-3.09,7.39-6.16,11.12-9.37,2.8-2.4,5.55-4.88,8.12-7.52,3.86-3.96,7.34-8.28,9.87-13.25,1.27-2.48,2.29-5.13,3-7.95.71-2.81,1.09-5.8,1.09-8.93,0-2.3-1.86-4.16-4.16-4.16s-4.16,1.87-4.16,4.16c0,3.82-.71,7.19-1.95,10.37-1.09,2.78-2.61,5.4-4.48,7.93-3.26,4.44-7.62,8.6-12.4,12.72-3.58,3.09-7.39,6.16-11.12,9.37-2.8,2.4-5.55,4.88-8.12,7.52-3.86,3.96-7.34,8.28-9.87,13.25-1.27,2.48-2.29,5.13-3,7.95-.71,2.81-1.09,5.8-1.09,8.93,0,4.86.92,9.34,2.52,13.41,1.4,3.57,3.31,6.82,5.52,9.83Z"/>
          <path class="cls-4" d="M261.24,110.94c-.96,0-1.73.78-1.73,1.73s.78,1.73,1.73,1.73h10.31c.96,0,1.73-.78,1.73-1.73s-.78-1.73-1.73-1.73h-10.31Z"/>
          <path class="cls-4" d="M280.09,103.64c0-.96-.78-1.73-1.73-1.73h-23.87c-.96,0-1.73.78-1.73,1.73s.78,1.73,1.73,1.73h23.87c.96,0,1.73-.78,1.73-1.73Z"/>
          <path class="cls-1" d="M244.3,35.29c3.71,5.02,8.26,9.38,12.98,13.49,2.18-1.85,4.35-3.64,6.46-5.41-2.69-2.31-5.26-4.63-7.58-7.01-3.49-3.57-6.4-7.26-8.41-11.21-1.01-1.98-1.8-4.03-2.34-6.19-.54-2.16-.84-4.44-.84-6.91,0-2.3-1.86-4.16-4.16-4.16s-4.16,1.87-4.16,4.16c0,4.86.92,9.34,2.52,13.41,1.4,3.57,3.31,6.82,5.52,9.83Z"/>
          <path class="cls-1" d="M254.48,27.34h23.87c.96,0,1.73-.78,1.73-1.73s-.78-1.73-1.73-1.73h-23.87c-.96,0-1.73.78-1.73,1.73s.78,1.73,1.73,1.73Z"/>
          <path class="cls-1" d="M261.24,32.9c-.96,0-1.73.78-1.73,1.73s.78,1.73,1.73,1.73h10.31c.96,0,1.73-.78,1.73-1.73s-.78-1.73-1.73-1.73h-10.31Z"/>
          <path class="cls-3" d="M288.56,66.85c-3.71-5.02-8.26-9.38-12.98-13.49-2.18,1.85-4.35,3.64-6.46,5.41,2.69,2.31,5.26,4.63,7.57,7.01,3.49,3.57,6.4,7.26,8.41,11.21,1.01,1.98,1.8,4.03,2.34,6.19.54,2.16.84,4.44.84,6.91,0,3.82-.71,7.19-1.95,10.37-1.09,2.78-2.61,5.4-4.48,7.93-3.26,4.44-7.62,8.6-12.4,12.72-3.58,3.09-7.39,6.16-11.12,9.37-2.8,2.4-5.55,4.88-8.12,7.52-3.86,3.96-7.34,8.28-9.87,13.25-1.27,2.48-2.29,5.13-3,7.95-.71,2.81-1.09,5.8-1.09,8.93,0,2.3,1.86,4.16,4.16,4.16s4.16-1.86,4.16-4.16c0-3.82.71-7.19,1.95-10.37,1.09-2.78,2.61-5.4,4.47-7.93,3.26-4.44,7.62-8.6,12.4-12.72,3.58-3.09,7.39-6.16,11.12-9.37,2.8-2.4,5.55-4.88,8.12-7.52,3.86-3.96,7.34-8.28,9.87-13.25,1.27-2.48,2.29-5.13,3-7.95.71-2.81,1.09-5.8,1.09-8.93,0-4.86-.92-9.34-2.52-13.41-1.4-3.57-3.31-6.82-5.52-9.83Z"/>
          <path class="cls-4" d="M271.51,147.27c.96,0,1.73-.78,1.73-1.73s-.78-1.73-1.73-1.73h-10.22c-.96,0-1.73.78-1.73,1.73s.78,1.73,1.73,1.73h10.22Z"/>
          <path class="cls-4" d="M252.78,154.57c0,.96.78,1.73,1.73,1.73h23.79c.96,0,1.73-.78,1.73-1.73s-.78-1.73-1.73-1.73h-23.79c-.96,0-1.73.78-1.73,1.73Z"/>
          <path class="cls-4" d="M281.53,83.83h-30.21c-.96,0-1.73.78-1.73,1.73s.78,1.73,1.73,1.73h30.21c.96,0,1.73-.78,1.73-1.73s-.78-1.73-1.73-1.73Z"/>
          <path class="cls-2" d="M288.56,144.88c-3.71-5.02-8.26-9.38-12.98-13.49-2.18,1.85-4.35,3.64-6.46,5.41,2.69,2.31,5.26,4.63,7.58,7.01,3.49,3.57,6.4,7.26,8.41,11.22,1.01,1.98,1.8,4.03,2.34,6.19.54,2.16.84,4.44.84,6.91,0,2.3,1.86,4.16,4.16,4.16s4.16-1.86,4.16-4.16c0-4.86-.92-9.34-2.52-13.41-1.4-3.57-3.31-6.82-5.52-9.83Z"/>
          <path class="cls-4" d="M278.31,74.8h-23.79c-.96,0-1.73.78-1.73,1.73s.78,1.73,1.73,1.73h23.79c.96,0,1.73-.78,1.73-1.73s-.78-1.73-1.73-1.73Z"/>
          <path class="cls-4" d="M281.53,161.87h-30.21c-.96,0-1.73.78-1.73,1.73s.78,1.73,1.73,1.73h30.21c.96,0,1.73-.78,1.73-1.73s-.78-1.73-1.73-1.73Z"/>
          <path class="cls-4" d="M271.51,65.76h-10.22c-.96,0-1.73.78-1.73,1.73s.78,1.73,1.73,1.73h10.22c.96,0,1.73-.78,1.73-1.73s-.78-1.73-1.73-1.73Z"/>
          <path class="cls-1" d="M251.31,18.3h30.24c.96,0,1.73-.78,1.73-1.73s-.78-1.73-1.73-1.73h-30.24c-.96,0-1.73.78-1.73,1.73,0,.96.78,1.73,1.73,1.73Z"/>
        </g>
      </g>
    </g>
    <path class="cls-5" d="M388.59,287.46c.01-.45-.14-3.03-.26-3.38,0,0-.61-3.23-.61-3.24,0-2.85-.64-2.53-1.71-4.7-.37-.77-1.76-1.75-2.27-1.25-1.25,1.23-.42,1.18-.71,2.13-.17.6-.12,1.65-.15,1.73-.96,2.44-1.09.89-2,1.49,0,.31.16,1.03-.22,1.16-.93.34-.2,1.18-.59,1.25-1.07.18-.5-1.18-1.68-1.18-.68,0-.54.55-.43.7,3.53,4.59-7.25,8.68-6.9,11.59.16,1.31-2.01.87-1.97-.57.02-.65-.39-1.07-.79-.6-.21.24-.54.57-.89.56-1.02-.03-.45.52-.76.64-1.03.38-.58.44-1.84.44-1.4,0-1.62.82-2.46.82-2.09,0-1.81.9-2,2.36-.07.45-.87,1.65-1.11,2.16-.41.8-1.75,2.13-1.28,2.93.86,1.47.17,1.68.44,3.01,0,.79.22,1.58.22,2.45,0,.73.15,1.02.16,1.47.26,6.07,1.9-.3-.64,7.19-.28.82-1.83,2.83-1.91,3.54-.08.58-.34.62-.54,1.09,0,.29-2.6,3.96-2.76,4.14-.35.36-.44,2.69-.26,2.98.17.29.28,1.01.31,1.37.02.24,1.26,1.99,1.47,2.26.38.5.7,2.05.48,2.68-.27.77-.2,1.37-.2,2.18,0,1.42.32,1.63.59,2.86.15.66,1.39,1.96,1.86,2.05.91.2,2.68,2.33,3.71,2.48,1.89.27,1.97-.6,3.12-1.16,2.47-1.19,1.81-1.03,4.49-1.03,1.41,0,1.47-1.14,2.16-1.99.51-.64.63-1.55.82-1.81.7-.92.86-2.58,1.42-3.54,3.17-5.44,4.92-17.2,8.52-22.98.57-.96,2.17-4.63,2.6-7.9.2-1.58-.17-1.76.64-3.38.75-1.52,1.54-1.64,1.54-3.43,0-.27.02-.84-.06-1.08-.32-.85-.2-1.26-.2-2.2,0-.51.38-2.57.97-2.57,1.81,0,.63,2.31,1.43,2.66.6.26.78-.47.86-.58.33-.45.15-1.68.15-2.25,0-1.12-.77-2.92-.75-3.52Z"/>
  </g>
</svg>